<?xml version="1.0" encoding="UTF-8"?>
<!DOCTYPE svg PUBLIC "-//W3C//DTD SVG 1.1//EN" "http://www.w3.org/Graphics/SVG/1.1/DTD/svg11.dtd">
<!-- Creator: CorelDRAW 2018 (64 Bit) -->
<svg xmlns="http://www.w3.org/2000/svg" xml:space="preserve" width="302px" height="77px" version="1.1" style="shape-rendering:geometricPrecision; text-rendering:geometricPrecision; image-rendering:optimizeQuality; fill-rule:evenodd; clip-rule:evenodd"
viewBox="0 0 303.35 77.4"
 xmlns:xlink="http://www.w3.org/1999/xlink">
 <defs>
  <style type="text/css">
   <![CDATA[
    .str0 {stroke:#166DB5;stroke-width:0.44;stroke-miterlimit:10}
    .fil1 {fill:#FEFEFE}
    .fil0 {fill:#FEFEFE;fill-rule:nonzero}
   ]]>
  </style>
 </defs>
 <g id="Capa_x0020_1">
  <metadata id="CorelCorpID_0Corel-Layer"/>
  <path class="fil0" d="M44.03 11.06c-0.38,1.81 0.5,3.21 2.55,3.21 1.98,0 3.59,-1.42 3.98,-3.24 0.4,-1.85 -0.46,-2.49 -1.94,-3.05l-1.5 -0.56c-1.76,-0.63 -2.57,-1.56 -2.16,-3.49 0.48,-2.3 2.37,-3.71 4.6,-3.71 2.63,0 3.48,1.5 2.99,3.87l-0.85 0c0.41,-1.91 -0.18,-3.19 -2.21,-3.19 -1.59,0 -3.2,0.73 -3.67,2.96 -0.33,1.57 0.36,2.33 1.51,2.75l1.95 0.73c1.71,0.64 2.57,1.54 2.13,3.64 -0.54,2.53 -2.73,3.96 -4.99,3.96 -3.29,0 -3.57,-2.31 -3.27,-3.69l0.2 -0.93 0.84 0 -0.16 0.74z"/>
  <path class="fil0 str0" d="M44.03 11.06c-0.38,1.81 0.5,3.21 2.55,3.21 1.98,0 3.59,-1.42 3.98,-3.24 0.4,-1.85 -0.46,-2.49 -1.94,-3.05l-1.5 -0.56c-1.76,-0.63 -2.57,-1.56 -2.16,-3.49 0.48,-2.3 2.37,-3.71 4.6,-3.71 2.63,0 3.48,1.5 2.99,3.87l-0.85 0c0.41,-1.91 -0.18,-3.19 -2.21,-3.19 -1.59,0 -3.2,0.73 -3.67,2.96 -0.33,1.57 0.36,2.33 1.51,2.75l1.95 0.73c1.71,0.64 2.57,1.54 2.13,3.64 -0.54,2.53 -2.73,3.96 -4.99,3.96 -3.29,0 -3.57,-2.31 -3.27,-3.69l0.2 -0.93 0.84 0 -0.16 0.74z"/>
  <path class="fil0" d="M54.98 10.93c-0.42,2 0.2,3.34 2.41,3.34 2.06,0 3.4,-1.34 3.82,-3.34l2.23 -10.47 0.84 0 -2.2 10.32c-0.67,3.21 -2.87,4.16 -4.84,4.16 -1.98,0 -3.77,-0.75 -3.06,-4.16l2.21 -10.32 0.83 0 -2.24 10.47z"/>
  <path class="fil0 str0" d="M54.98 10.93c-0.42,2 0.2,3.34 2.41,3.34 2.06,0 3.4,-1.34 3.82,-3.34l2.23 -10.47 0.84 0 -2.2 10.32c-0.67,3.21 -2.87,4.16 -4.84,4.16 -1.98,0 -3.77,-0.75 -3.06,-4.16l2.21 -10.32 0.83 0 -2.24 10.47z"/>
  <path class="fil0" d="M69.59 7.69c1.69,0 3.33,-0.92 3.83,-3.28 0.41,-2.04 -0.39,-3.27 -2.32,-3.27l-2.87 0 -1.4 6.55 2.76 0zm-2.06 -7.23l3.69 0c3.32,0.06 3.35,2.41 3.03,3.95 -0.51,2.42 -2.34,3.95 -4.88,3.95l-2.68 0 -1.35 6.35 -0.85 0 3.04 -14.25z"/>
  <path class="fil0 str0" d="M69.59 7.69c1.69,0 3.33,-0.92 3.83,-3.28 0.41,-2.04 -0.39,-3.27 -2.32,-3.27l-2.87 0 -1.4 6.55 2.76 0zm-2.06 -7.23l3.69 0c3.32,0.06 3.35,2.41 3.03,3.95 -0.51,2.42 -2.34,3.95 -4.88,3.95l-2.68 0 -1.35 6.35 -0.85 0 3.04 -14.25z"/>
  <polygon class="fil0" points="77.76,0.46 84.56,0.46 84.41,1.22 78.44,1.22 77.22,6.9 82.79,6.9 82.63,7.66 77.06,7.66 75.72,13.95 81.87,13.95 81.72,14.71 74.72,14.71 "/>
  <polygon class="fil0 str0" points="77.76,0.46 84.56,0.46 84.41,1.22 78.44,1.22 77.22,6.9 82.79,6.9 82.63,7.66 77.06,7.66 75.72,13.95 81.87,13.95 81.72,14.71 74.72,14.71 "/>
  <path class="fil0" d="M89.29 7.42c1.57,0 3.44,-0.52 4.03,-3.23 0.4,-1.92 -0.42,-3.05 -2.15,-3.05l-3.22 0 -1.34 6.28 2.68 0zm-2.04 -6.96l4.18 0c1.97,0 3.28,1.14 2.73,3.73 -0.4,1.88 -1.7,3.33 -3.61,3.54l0 0.03c2.29,0.14 2.41,1.58 1.99,3.53l-0.32 1.5c-0.15,0.82 -0.15,1.34 0.09,1.92l-0.96 0c-0.15,-0.42 -0.12,-1.1 0.05,-1.94l0.3 -1.45c0.44,-2.04 0.13,-3.22 -2.17,-3.22l-3.07 0 -1.4 6.61 -0.83 0 3.02 -14.25z"/>
  <path class="fil0 str0" d="M89.29 7.42c1.57,0 3.44,-0.52 4.03,-3.23 0.4,-1.92 -0.42,-3.05 -2.15,-3.05l-3.22 0 -1.34 6.28 2.68 0zm-2.04 -6.96l4.18 0c1.97,0 3.28,1.14 2.73,3.73 -0.4,1.88 -1.7,3.33 -3.61,3.54l0 0.03c2.29,0.14 2.41,1.58 1.99,3.53l-0.32 1.5c-0.15,0.82 -0.15,1.34 0.09,1.92l-0.96 0c-0.15,-0.42 -0.12,-1.1 0.05,-1.94l0.3 -1.45c0.44,-2.04 0.13,-3.22 -2.17,-3.22l-3.07 0 -1.4 6.61 -0.83 0 3.02 -14.25z"/>
  <polygon class="fil0" points="107.78,1.54 107.75,1.54 100.86,14.71 100.02,14.71 98.72,1.54 98.69,1.54 95.89,14.71 95.06,14.71 98.09,0.46 99.44,0.46 100.76,13.27 100.79,13.27 107.49,0.46 108.86,0.46 105.83,14.71 104.99,14.71 "/>
  <polygon class="fil0 str0" points="107.78,1.54 107.75,1.54 100.86,14.71 100.02,14.71 98.72,1.54 98.69,1.54 95.89,14.71 95.06,14.71 98.09,0.46 99.44,0.46 100.76,13.27 100.79,13.27 107.49,0.46 108.86,0.46 105.83,14.71 104.99,14.71 "/>
  <polygon class="fil0" points="112.15,0.46 118.95,0.46 118.79,1.22 112.83,1.22 111.6,6.9 117.18,6.9 117.01,7.66 111.45,7.66 110.12,13.95 116.26,13.95 116.09,14.71 109.12,14.71 "/>
  <polygon class="fil0 str0" points="112.15,0.46 118.95,0.46 118.79,1.22 112.83,1.22 111.6,6.9 117.18,6.9 117.01,7.66 111.45,7.66 110.12,13.95 116.26,13.95 116.09,14.71 109.12,14.71 "/>
  <path class="fil0" d="M123.67 7.42c1.58,0 3.46,-0.52 4.04,-3.23 0.4,-1.92 -0.43,-3.05 -2.16,-3.05l-3.21 0 -1.34 6.28 2.67 0zm-2.03 -6.96l4.17 0c1.99,0 3.29,1.14 2.73,3.73 -0.39,1.88 -1.69,3.33 -3.61,3.54l0 0.03c2.3,0.14 2.42,1.58 2,3.53l-0.32 1.5c-0.16,0.82 -0.16,1.34 0.08,1.92l-0.96 0c-0.14,-0.42 -0.11,-1.1 0.06,-1.94l0.3 -1.45c0.45,-2.04 0.12,-3.22 -2.18,-3.22l-3.06 0 -1.41 6.61 -0.83 0 3.03 -14.25z"/>
  <path class="fil0 str0" d="M123.67 7.42c1.58,0 3.46,-0.52 4.04,-3.23 0.4,-1.92 -0.43,-3.05 -2.16,-3.05l-3.21 0 -1.34 6.28 2.67 0zm-2.03 -6.96l4.17 0c1.99,0 3.29,1.14 2.73,3.73 -0.39,1.88 -1.69,3.33 -3.61,3.54l0 0.03c2.3,0.14 2.42,1.58 2,3.53l-0.32 1.5c-0.16,0.82 -0.16,1.34 0.08,1.92l-0.96 0c-0.14,-0.42 -0.11,-1.1 0.06,-1.94l0.3 -1.45c0.45,-2.04 0.12,-3.22 -2.18,-3.22l-3.06 0 -1.41 6.61 -0.83 0 3.03 -14.25z"/>
  <path class="fil0" d="M139 4.55c0.42,-1.92 -0.24,-3.65 -2.34,-3.65 -2.83,0 -4.33,2.65 -5.19,6.67 -0.81,3.82 -0.63,6.7 2.24,6.7 2.75,0 4.09,-3.24 4.33,-4.35l0.84 0c-0.37,1.68 -1.92,5.02 -5.47,5.02 -3.09,0 -3.75,-2.73 -2.77,-7.34 0.94,-4.47 2.81,-7.38 6.12,-7.38 3.33,0 3.37,2.93 3.07,4.33l-0.83 0z"/>
  <path class="fil0 str0" d="M139 4.55c0.42,-1.92 -0.24,-3.65 -2.34,-3.65 -2.83,0 -4.33,2.65 -5.19,6.67 -0.81,3.82 -0.63,6.7 2.24,6.7 2.75,0 4.09,-3.24 4.33,-4.35l0.84 0c-0.37,1.68 -1.92,5.02 -5.47,5.02 -3.09,0 -3.75,-2.73 -2.77,-7.34 0.94,-4.47 2.81,-7.38 6.12,-7.38 3.33,0 3.37,2.93 3.07,4.33l-0.83 0z"/>
  <path class="fil0" d="M147.06 1.3l-0.05 0 -4.28 8.29 5 0 -0.67 -8.29zm0.69 8.98l-5.37 0 -2.3 4.43 -0.82 0 7.45 -14.25 1.06 0 1.24 14.25 -0.84 0 -0.42 -4.43z"/>
  <path class="fil0 str0" d="M147.06 1.3l-0.05 0 -4.28 8.29 5 0 -0.67 -8.29zm0.69 8.98l-5.37 0 -2.3 4.43 -0.82 0 7.45 -14.25 1.06 0 1.24 14.25 -0.84 0 -0.42 -4.43z"/>
  <path class="fil0" d="M154.54 14.03c3.03,0 4.71,-2.08 5.66,-6.44 0.91,-4.38 0.36,-6.45 -2.92,-6.45l-2.41 0 -2.76 12.89 2.43 0zm-0.37 -13.57l3.26 0c3.01,0 4.84,1.28 3.6,7.13 -1.23,5.84 -3.94,7.12 -6.64,7.12l-3.25 0 3.03 -14.25z"/>
  <path class="fil0 str0" d="M154.54 14.03c3.03,0 4.71,-2.08 5.66,-6.44 0.91,-4.38 0.36,-6.45 -2.92,-6.45l-2.41 0 -2.76 12.89 2.43 0zm-0.37 -13.57l3.26 0c3.01,0 4.84,1.28 3.6,7.13 -1.23,5.84 -3.94,7.12 -6.64,7.12l-3.25 0 3.03 -14.25z"/>
  <path class="fil0" d="M164.38 7.59c-0.84,3.91 -0.62,6.68 2.36,6.68 2.61,0 4.21,-2.16 5.17,-6.68 0.81,-3.86 0.56,-6.69 -2.34,-6.69 -2.8,0 -4.35,2.77 -5.19,6.69zm8.37 0c-1.34,6.24 -4.16,7.35 -6.17,7.35 -2.73,0 -4.21,-1.83 -3.04,-7.35 1.17,-5.53 3.55,-7.37 6.17,-7.37 2.83,0 4.21,1.84 3.04,7.37z"/>
  <path class="fil0 str0" d="M164.38 7.59c-0.84,3.91 -0.62,6.68 2.36,6.68 2.61,0 4.21,-2.16 5.17,-6.68 0.81,-3.86 0.56,-6.69 -2.34,-6.69 -2.8,0 -4.35,2.77 -5.19,6.69zm8.37 0c-1.34,6.24 -4.16,7.35 -6.17,7.35 -2.73,0 -4.21,-1.83 -3.04,-7.35 1.17,-5.53 3.55,-7.37 6.17,-7.37 2.83,0 4.21,1.84 3.04,7.37z"/>
  <path class="fil0" d="M175.29 11.06c-0.37,1.81 0.51,3.21 2.56,3.21 1.97,0 3.59,-1.42 3.97,-3.24 0.4,-1.85 -0.46,-2.49 -1.94,-3.05l-1.5 -0.56c-1.75,-0.63 -2.57,-1.56 -2.15,-3.49 0.49,-2.3 2.36,-3.71 4.59,-3.71 2.63,0 3.5,1.5 3,3.87l-0.85 0c0.4,-1.91 -0.19,-3.19 -2.21,-3.19 -1.6,0 -3.21,0.73 -3.67,2.96 -0.34,1.57 0.36,2.33 1.5,2.75l1.96 0.73c1.71,0.64 2.57,1.54 2.13,3.64 -0.54,2.53 -2.74,3.96 -4.99,3.96 -3.3,0 -3.58,-2.31 -3.27,-3.69l0.19 -0.93 0.84 0 -0.16 0.74z"/>
  <path class="fil0 str0" d="M175.29 11.06c-0.37,1.81 0.51,3.21 2.56,3.21 1.97,0 3.59,-1.42 3.97,-3.24 0.4,-1.85 -0.46,-2.49 -1.94,-3.05l-1.5 -0.56c-1.75,-0.63 -2.57,-1.56 -2.15,-3.49 0.49,-2.3 2.36,-3.71 4.59,-3.71 2.63,0 3.5,1.5 3,3.87l-0.85 0c0.4,-1.91 -0.19,-3.19 -2.21,-3.19 -1.6,0 -3.21,0.73 -3.67,2.96 -0.34,1.57 0.36,2.33 1.5,2.75l1.96 0.73c1.71,0.64 2.57,1.54 2.13,3.64 -0.54,2.53 -2.74,3.96 -4.99,3.96 -3.3,0 -3.58,-2.31 -3.27,-3.69l0.19 -0.93 0.84 0 -0.16 0.74z"/>
  <path class="fil1" d="M15.82 48.83c-1.96,0.13 -5.32,0.04 -5.32,0.04 0.03,-0.85 5.09,-33.44 5.09,-33.44 0,0 5.63,-0.5 9.14,1.42 6.85,3.76 3.11,31.1 -8.91,31.98zm20.18 -30.25c-2.26,-4.19 -4.6,-7.34 -19.18,-7.32 -1.56,0 -8.52,0.15 -13.59,0 -2.95,-0.09 -3,2.81 -1.19,3.01 2.94,0.33 3.16,0.81 3.22,1.38 0.25,2.12 -1.31,10.87 -1.98,14.77 -0.69,3.95 -3.35,21.35 -3.28,22.92 0.02,0.32 3.05,-0.04 7.57,-0.04 4.53,0 12.34,0.26 17.25,-1.67 4.53,-1.79 9.32,-6.04 11.79,-16.14 1.92,-7.8 1.24,-13.5 -0.61,-16.91z"/>
  <path class="fil1" d="M57.74 38.91c-0.43,2.89 -0.83,5.83 -1.82,7.7 -1.12,2.1 -2.71,3.09 -3.97,2.91 -1.59,-0.23 -2.91,-2.21 -3.18,-5.58 -0.15,-1.72 -0.07,-4.58 0.32,-6.64 1.29,-6.88 3.93,-9.72 6.28,-9.87 2.34,-0.15 2.83,1.8 2.97,2.8 0.32,2.25 -0.11,5.28 -0.6,8.68zm2.33 -14.78c-0.06,0.55 0.02,1.28 -0.1,1.4 0,0 -0.27,-0.88 -2.62,-1.68 -1.63,-0.56 -7.42,-0.86 -12.2,3.19 -2.14,1.8 -4.7,5.6 -5.73,10.63 -1.43,6.96 1.57,12.58 4.16,14.28 2.02,1.31 5.42,2.26 7.63,1.99 2.22,-0.28 3.95,-1.69 4.19,-1.35 0.32,0.47 0.42,0.77 0.42,0.77 1.42,0.1 6.74,0.07 8.1,0.05 1.35,-0.04 1.67,-0.05 1.67,-0.05 0,0 1.46,-10.95 1.71,-12.73 0.24,-1.79 2.74,-17.47 2.74,-18.18 0,-0.15 -9.97,1.68 -9.97,1.68z"/>
  <path class="fil1" d="M73.36 24.93c0,0 -0.64,0.64 -0.52,1.43 0.19,1.13 3.79,0.62 4.39,1.84 0.6,1.22 -3.16,24.3 -3.22,24.92 0,0 8.54,-0.05 9.82,-0.14 0,0 2.05,-18.4 3.78,-21.91 1.13,-2.29 3.57,-4.19 6,-4.13 2.39,0.06 3.42,1.45 3.1,5.51 -0.4,4.89 -2.91,19.7 -3.05,20.57 0,0 9.01,0.14 10.03,0.1 0,0 2.64,-19.23 3.66,-21.78 1.2,-2.92 3.72,-4.7 6.16,-4.55 2.46,0.14 3.52,1.26 2.89,6.76 -0.68,5.93 -2.92,18.74 -3.06,19.38 0,0 8.79,-0.16 9.81,-0.11 0,0 2.98,-18.58 2.93,-20.42 -0.04,-1.84 -0.5,-6.65 -4.32,-8.4 -3.84,-1.75 -8.84,-0.96 -10.9,-0.13 -2.11,0.85 -4.51,2.77 -5.21,3.59 -0.32,0.39 -1.89,-2.95 -5.22,-3.86 -2.54,-0.69 -4.79,-0.75 -7.47,-0.01 -1.61,0.45 -4.42,1.75 -4.42,1.75 -0.78,0.23 -0.37,-2.2 -0.32,-2.96l-14.86 2.55z"/>
  <path class="fil1" d="M139.94 30.32c1.68,-5.12 5.88,-5.78 8.24,-3.38 1.77,1.81 0.84,5.92 0.84,5.92l-10.31 2.23c0,0 0.9,-3.76 1.23,-4.77zm16.24 4.16c0,0 0.36,-1.74 -0.99,-5.68 -1.37,-3.98 -5.43,-7.33 -12.23,-6.42 -6.6,0.88 -9.66,3.98 -12,7.82 -2.41,3.97 -3.19,9.3 -2.83,13.04 0.38,3.81 2.22,7.77 6.83,9.29 5.78,1.91 11.53,0.93 13.93,-0.24 2.41,-1.17 3.75,-2.4 3.75,-2.4l0.71 -5.36c0,0 -0.89,1.05 -3.48,2.34 -2.58,1.29 -7.19,3.17 -10.42,-1.17 -2.45,-3.29 -1.51,-7.38 -1.51,-7.38 0,0 17.76,-3.76 18.24,-3.84z"/>
  <path class="fil1" d="M183.57 23.99l-0.78 4.5c-1.48,-0.32 -6.19,-1.67 -8.46,-1.85 -2.26,-0.19 -5.78,0.67 -5.7,2.59 0.06,1.37 5.52,3.91 8.11,5.57 2.58,1.66 4.69,3.62 5.21,4.64 0.51,1.02 1.24,2.81 0.51,5.56 -0.84,3.19 -3.41,5.28 -5.15,6.45 -2.43,1.63 -6.39,2.28 -9.01,2.16 -4,-0.2 -9.32,-2 -10.7,-3.51l0.52 -6.08c0,0 0.95,1.2 2.71,2.45 2.94,2.12 5.38,2.31 7.38,2.54 2.01,0.24 4.24,-0.54 4.86,-1.31 0.59,-0.75 0.74,-1.81 -0.86,-3.01 -1.62,-1.2 -6.67,-3.71 -8.85,-5.23 -2.17,-1.52 -3.98,-2.71 -4.06,-6.64 -0.1,-5.27 4.16,-7.7 6.09,-8.52 4.12,-1.74 7.3,-1.91 14.31,-1.04 0.9,0.12 3.57,0.45 3.87,0.73z"/>
  <path class="fil1" d="M214.34 31.71c0,0 0.59,-2.49 -1.29,-5.26 -2.43,-3.58 -7.14,-5.07 -11.24,-4.53 -4.11,0.53 -7.7,1.64 -11.86,6.96 -2.22,2.85 -3.53,6.7 -3.72,10.03 -0.19,3.32 -0.45,7.09 2.09,10.07 2.77,3.26 6.52,4.63 11.44,4.63 5.59,-0.01 8.68,-2.11 11.24,-3.98l0.21 -5.14c0,0.2 -3.04,2.35 -5.44,3.18 -1.26,0.43 -4.63,0.86 -6.51,-0.6 -2.82,-2.17 -3.32,-6.91 -2.55,-12.46 0.7,-4.98 3.1,-9.13 5.96,-9.5 1.79,-0.23 4.3,0.67 4.48,3.28 0.18,2.6 -0.23,3.73 -0.23,3.73l7.42 -0.41z"/>
  <path class="fil1" d="M236.07 38.3c-1.67,10.68 -5.46,10.97 -8.11,10.57 -1.61,-0.25 -4.32,-1.62 -2.23,-12.29 1.9,-9.76 4.65,-11.66 7.43,-11.12 4.71,0.93 3.45,9.43 2.91,12.84zm5.56 -13.61c-4.03,-3.23 -10.04,-2.6 -10.04,-2.6 -7.15,0.3 -11.4,4.23 -13.28,7.67 -1.29,2.37 -3.45,9.93 -2.77,14.33 0.99,6.3 5.21,8.62 10.75,9.36 4.73,0.62 10.54,-0.77 13.43,-3.69 3.72,-3.75 5.8,-8.15 6.23,-13.44 0.57,-6.99 -1.74,-9.55 -4.32,-11.63z"/>
  <path class="fil1" d="M267.69 2.93c0,0 -4.38,1.4 -10.11,4.21 -1.18,0.57 -7.43,4.22 -7.43,4.22 0,0 8.64,0.48 13.06,2.88 4.43,2.4 5.39,4.15 6.38,6.67 1.77,4.55 0.08,11.54 -3.97,16.15 -4.61,5.26 -8.4,7.87 -10.86,9.39 -1.12,0.7 -4.76,2.89 -6.73,3.9 -2.52,1.27 -4.63,1.98 -5.18,2.12 -1.07,0.27 5.94,-0.77 12.25,-3.46 10.03,-4.27 16.17,-10.94 19.21,-15.27 3.06,-4.34 4.5,-10.2 2.56,-14.58 -1.55,-3.51 -4.66,-5.41 -8.07,-6.9 -4.72,-2.06 -11.64,-1.91 -11.64,-1.91 0,0 -0.03,-0.27 3.87,-2.91l6.66 -4.51z"/>
  <path class="fil1" d="M266.43 7.95c4.8,-2.4 7.02,-4.14 13.71,-6.14 5.71,-1.7 16.09,-2.16 20.38,3.51 3.78,5 3.51,11.02 0.74,16.6 -2.97,5.98 -10.79,16.38 -23.41,22.15 -6.93,3.16 -14.23,5.18 -16.54,5.82 0,0 8.95,-4.59 13.6,-8.17 4.63,-3.55 10.52,-10.43 11.72,-16.61 1.2,-6.18 -0.59,-9.83 -4.36,-13.15 -5.04,-4.44 -15.84,-4.01 -15.84,-4.01z"/>
  <path class="fil0" d="M114.38 71.34c0.69,0.41 1.66,0.74 2.72,0.74 0.96,0 1.84,-0.45 1.84,-1.35 0,-0.65 -0.5,-1.08 -1.56,-1.63 -1.24,-0.67 -2.4,-1.56 -2.4,-3.06 0,-2.33 2.04,-3.75 4.55,-3.75 1.41,0 2.23,0.31 2.73,0.58l-0.77 2.05c-0.38,-0.2 -1.2,-0.53 -2.16,-0.51 -1.15,0 -1.75,0.58 -1.75,1.21 0,0.67 0.7,1.08 1.68,1.63 1.4,0.74 2.29,1.68 2.29,3.05 0,2.57 -2.12,3.9 -4.69,3.9 -1.6,-0.03 -2.75,-0.43 -3.3,-0.84l0.82 -2.02z"/>
  <path class="fil0" d="M125.68 64.6c-0.67,0 -1.18,-0.46 -1.18,-1.2 0.01,-0.84 0.66,-1.4 1.42,-1.4 0.72,0 1.23,0.48 1.23,1.21 0,0.87 -0.67,1.39 -1.46,1.39l-0.01 0zm-3.12 9.41l1.59 -8.37 2.47 0 -1.59 8.37 -2.47 0z"/>
  <path class="fil0" d="M132.83 67.95c0,-0.41 -0.34,-0.7 -0.91,-0.7 -1.14,0 -1.79,0.94 -1.96,1.73 1.91,0.02 2.87,-0.26 2.87,-1.01l0 -0.02zm1.27 5.58c-0.98,0.5 -2.19,0.67 -3.12,0.67 -2.39,0 -3.63,-1.37 -3.63,-3.54 0,-2.55 1.85,-5.21 4.88,-5.21 1.7,0 2.91,0.95 2.91,2.5 0,2.14 -2.07,2.91 -5.42,2.83 0,0.24 0.08,0.61 0.25,0.85 0.33,0.43 0.89,0.65 1.61,0.65 0.91,0 1.68,-0.2 2.35,-0.53l0.17 1.78z"/>
  <path class="fil0" d="M135.67 74.01l1.05 -5.65c0.18,-1.06 0.32,-1.98 0.42,-2.72l2.13 0 -0.16 1.35 0.04 0c0.75,-1.07 1.78,-1.54 2.85,-1.54 1.34,0 1.92,0.84 1.99,1.58 0.75,-1.08 1.8,-1.58 2.88,-1.58 1.3,0 2.05,0.83 2.05,2.25 0,0.36 -0.07,1.01 -0.15,1.43l-0.91 4.88 -2.38 0 0.84 -4.57c0.07,-0.34 0.12,-0.7 0.12,-1.02 0,-0.59 -0.26,-1 -0.84,-1 -0.82,0 -1.63,1.11 -1.95,2.79l-0.7 3.8 -2.38 0 0.85 -4.6c0.07,-0.34 0.12,-0.67 0.12,-0.96 0,-0.57 -0.19,-1.03 -0.78,-1.03 -0.84,0 -1.72,1.18 -2.02,2.83l-0.69 3.76 -2.38 0z"/>
  <path class="fil0" d="M152.73 71.92c0.28,0.26 0.65,0.41 1.13,0.41 1.32,0 2.35,-1.88 2.35,-3.52 0,-0.67 -0.27,-1.37 -1.08,-1.37 -0.92,0 -1.78,1.04 -2.09,2.69l-0.31 1.79zm-3.5 5.48l1.6 -8.52c0.19,-1 0.4,-2.45 0.5,-3.31l2.21 0 -0.16 1.29 0.04 0c0.68,-0.91 1.68,-1.41 2.69,-1.41 1.81,0 2.68,1.46 2.68,3.17 0,2.91 -1.93,5.58 -4.84,5.58 -0.69,0 -1.27,-0.17 -1.56,-0.34l-0.03 0 -0.69 3.54 -2.44 0z"/>
  <path class="fil0" d="M159.51 74.01l0.94 -4.98c0.24,-1.27 0.34,-2.67 0.43,-3.39l2.14 0c-0.05,0.57 -0.1,1.13 -0.16,1.71l0.06 0c0.58,-1.11 1.52,-1.9 2.67,-1.9 0.15,0 0.3,0 0.46,0.02l-0.48 2.4c-0.12,0 -0.26,-0.02 -0.39,-0.02 -1.58,0 -2.32,1.4 -2.62,3.05l-0.59 3.11 -2.46 0z"/>
  <path class="fil0" d="M171.58 67.95c0,-0.41 -0.35,-0.7 -0.91,-0.7 -1.15,0 -1.8,0.94 -1.97,1.73 1.92,0.02 2.88,-0.26 2.88,-1.01l0 -0.02zm1.26 5.58c-0.97,0.5 -2.19,0.67 -3.11,0.67 -2.4,0 -3.63,-1.37 -3.63,-3.54 0,-2.55 1.85,-5.21 4.88,-5.21 1.69,0 2.91,0.95 2.91,2.5 0,2.14 -2.07,2.91 -5.43,2.83 0,0.24 0.09,0.61 0.26,0.85 0.32,0.43 0.89,0.65 1.61,0.65 0.9,0 1.67,-0.2 2.34,-0.53l0.17 1.78z"/>
  <path class="fil0" d="M182.29 63.37l-0.43 2.27 1.78 0 -0.36 1.87 -1.78 0 -0.56 2.84c-0.07,0.32 -0.14,0.77 -0.14,1.06 0,0.41 0.17,0.7 0.7,0.7 0.22,0 0.46,0 0.69,-0.03l-0.29 1.93c-0.31,0.12 -0.93,0.19 -1.46,0.19 -1.47,0 -2.17,-0.77 -2.17,-1.81 0,-0.47 0.05,-0.91 0.17,-1.56l0.65 -3.32 -1.06 0 0.34 -1.87 1.08 0 0.31 -1.57 2.53 -0.7z"/>
  <path class="fil0" d="M189.17 67.95c0,-0.41 -0.34,-0.7 -0.91,-0.7 -1.14,0 -1.8,0.94 -1.97,1.73 1.92,0.02 2.88,-0.26 2.88,-1.01l0 -0.02zm1.27 5.58c-0.98,0.5 -2.19,0.67 -3.12,0.67 -2.4,0 -3.63,-1.37 -3.63,-3.54 0,-2.55 1.85,-5.21 4.88,-5.21 1.69,0 2.91,0.95 2.91,2.5 0,2.14 -2.07,2.91 -5.43,2.83 0,0.24 0.09,0.61 0.26,0.85 0.33,0.43 0.89,0.65 1.61,0.65 0.91,0 1.68,-0.2 2.34,-0.53l0.18 1.78z"/>
  <path class="fil0" d="M201.44 67.61c-0.19,-0.15 -0.57,-0.29 -0.98,-0.29 -1.47,0 -2.51,1.71 -2.51,3.32 0,1.01 0.44,1.58 1.16,1.58 0.7,0 1.58,-0.76 1.9,-2.35l0.43 -2.26zm3.54 -5.75l-1.69 8.9c-0.21,1.06 -0.36,2.26 -0.4,3.25l-2.26 0 0.12 -1.35 -0.03 0c-0.74,1.11 -1.76,1.54 -2.74,1.54 -1.42,0 -2.6,-1.13 -2.6,-3.17 0,-2.91 2.11,-5.58 5.27,-5.58 0.34,0 0.79,0.05 1.15,0.19l0.72 -3.78 2.46 0z"/>
  <path class="fil0" d="M210.94 67.39c-0.19,-0.04 -0.43,-0.07 -0.67,-0.07 -1.59,0 -2.76,1.95 -2.76,3.51 0,0.82 0.33,1.38 1.01,1.38 0.74,0 1.65,-0.83 2.02,-2.89l0.4 -1.93zm-0.72 6.62c0.02,-0.49 0.07,-1.06 0.12,-1.66l-0.05 0c-0.77,1.39 -1.83,1.85 -2.81,1.85 -1.51,0 -2.53,-1.16 -2.53,-2.91 0,-2.82 1.86,-5.84 5.99,-5.84 0.99,0 2.07,0.19 2.77,0.42l-0.89 4.38c-0.21,1.08 -0.36,2.72 -0.33,3.76l-2.27 0z"/>
  <path class="fil0" d="M227.11 74.01l0.7 -4.76c0.19,-1.25 0.45,-2.84 0.77,-4.5l-0.05 0c-0.63,1.49 -1.35,3.08 -1.98,4.35l-2.37 4.72 -1.91 0 -0.42 -4.67c-0.1,-1.27 -0.18,-2.86 -0.25,-4.4l-0.04 0c-0.32,1.53 -0.66,3.27 -0.95,4.5l-1.15 4.76 -2.26 0 2.89 -11.54 3.31 0 0.36 4.39c0.06,1.08 0.18,2.39 0.2,3.68l0.07 0c0.44,-1.29 1.06,-2.64 1.56,-3.68l2.14 -4.39 3.33 0 -1.55 11.54 -2.4 0z"/>
  <path class="fil0" d="M240.32 62.03l-2.22 2.6 -1.82 0 1.61 -2.6 2.43 0zm-2.7 5.36c-0.19,-0.04 -0.43,-0.07 -0.67,-0.07 -1.59,0 -2.76,1.95 -2.76,3.51 0,0.82 0.33,1.39 1.01,1.39 0.74,0 1.65,-0.84 2.02,-2.9l0.4 -1.93zm-0.72 6.62c0.02,-0.49 0.07,-1.06 0.12,-1.66l-0.05 0c-0.77,1.39 -1.83,1.85 -2.81,1.85 -1.51,0 -2.53,-1.16 -2.53,-2.91 0,-2.82 1.86,-5.84 5.99,-5.84 0.99,0 2.07,0.19 2.77,0.42l-0.89 4.38c-0.21,1.08 -0.36,2.72 -0.33,3.76l-2.27 0z"/>
  <path class="fil0" d="M241.21 71.8c0.48,0.24 1.39,0.59 2.19,0.59 0.7,0 1.06,-0.35 1.06,-0.76 0,-0.41 -0.27,-0.7 -1.04,-1.08 -0.98,-0.47 -1.78,-1.18 -1.78,-2.22 0,-1.73 1.52,-2.88 3.68,-2.88 0.97,0 1.74,0.19 2.15,0.43l-0.58 1.75c-0.36,-0.17 -0.94,-0.38 -1.68,-0.38 -0.64,0 -1.09,0.29 -1.09,0.74 0,0.34 0.34,0.63 1.03,0.96 0.9,0.46 1.86,1.13 1.86,2.29 0,1.92 -1.62,2.98 -3.83,2.96 -1.06,-0.03 -2.07,-0.29 -2.57,-0.67l0.6 -1.73z"/>
 </g>
</svg>
